<svg width="566" height="119" viewBox="0 0 566 119" fill="none" xmlns="http://www.w3.org/2000/svg">
<path d="M4 15.2559C35.8793 40.8295 61.0593 51.6549 101.958 49.8373C138.891 48.1958 179.066 30.6554 213.417 17.8736C255.946 2.04866 339.43 -10.3195 364.142 40.0553C383.331 79.1699 354.57 125.943 309.308 113.213C291.859 108.306 282.842 85.0112 290.571 68.8501C298.919 51.3949 323.875 42.9801 341.134 38.9531C387.486 28.1379 418.366 71.5573 460.309 79.1831C499.494 86.3078 528.593 68.7546 558.266 45.0152C560.808 42.9818 559.506 56.5111 559.506 59.8948C559.506 72.2995 561.986 66.794 561.986 57.4149C561.986 51.3828 565.164 38.5578 557.026 41.9841C551.155 44.456 538.815 45.0152 532.227 45.0152" stroke="#1305AC" stroke-width="6.49254" stroke-linecap="round"/>
</svg>
