<svg width="936" height="526" viewBox="0 0 936 526" fill="none" xmlns="http://www.w3.org/2000/svg">
<path d="M660.321 239.979C660.322 239.991 660.322 240.005 660.321 240.02C660.29 240.018 660.262 240.017 660.234 240.016L660.281 239.868C660.298 239.907 660.313 239.947 660.321 239.979ZM659.825 239.527C659.801 239.531 659.762 239.537 659.716 239.551C648.982 236.277 635.466 235.759 620.321 237.42C604.884 239.113 587.721 243.073 570.028 248.718C534.643 260.008 497.095 278.05 466.924 298.237C451.838 308.331 438.586 318.967 428.368 329.573C418.156 340.172 410.944 350.772 407.989 360.795C405.026 370.846 406.348 380.32 413.194 388.566C419.896 396.637 431.848 403.481 450.093 408.601C437.316 418.153 429.349 427.394 425.437 436.159C421.433 445.131 421.689 453.583 425.353 461.286C429.008 468.968 436.033 475.865 445.495 481.805C454.962 487.748 466.9 492.754 480.436 496.641C507.507 504.415 541.023 507.73 574.064 505.078C606.995 502.435 639.494 493.86 664.683 477.825C702.135 497.848 737.282 511.646 768.178 519.064C799.138 526.497 825.867 527.531 846.377 521.963C866.91 516.388 881.22 504.19 887.243 485.203C893.228 466.336 891.002 440.849 878.74 408.646C904.842 396.195 920.923 384.134 929.027 372.532C933.106 366.692 935.172 360.957 935.464 355.345C935.756 349.732 934.272 344.279 931.314 339.008C925.406 328.484 913.6 318.644 898.161 309.566C882.709 300.481 863.56 292.125 842.894 284.593C801.561 269.529 754.101 257.741 717.881 250.005C699.769 246.136 684.462 243.28 674.131 241.533C668.966 240.66 665.04 240.064 662.627 239.757C661.429 239.604 660.579 239.52 660.137 239.513C660.029 239.511 659.918 239.513 659.825 239.527Z" fill="#F9F9F9" fill-opacity="0.1" stroke="black"/>
<path d="M435.741 245.359C418.849 215.629 402.655 199.57 370.449 188.848C341.366 179.165 304.936 181.108 274.463 181.014C236.733 180.899 168.36 165.868 164.56 118.631C161.609 81.9524 198.098 53.4679 229.255 77.0068C241.267 86.0815 241.158 107.208 230.26 117.707C218.488 129.046 196.614 128.288 182.032 126.345C142.868 121.126 132.178 77.5623 102.038 59.0519C73.8781 41.7581 46.0173 47.0046 15.83 56.9787C13.2442 57.8331 18.3678 47.5072 19.3973 44.8278C23.1712 35.0054 19.5768 38.6274 16.7234 46.0541C14.8882 50.8305 8.52721 60.0409 15.8675 59.7476C21.1632 59.536 30.884 62.7627 35.9827 64.7217" stroke="#AAAAAA" stroke-width="6.49254" stroke-linecap="round"/>
<path d="M502.156 419.438C499.031 419.438 496.188 418.688 493.625 417.188C491.125 415.688 488.969 413.625 487.156 411C485.406 408.375 484.062 405.312 483.125 401.812C482.25 398.25 481.875 394.469 482 390.469C482.125 386.719 482.594 382.656 483.406 378.281C484.281 373.906 485.5 369.531 487.062 365.156C488.625 360.719 490.5 356.469 492.688 352.406C494.938 348.281 497.5 344.656 500.375 341.531C503.25 338.406 506.438 335.906 509.938 334.031C513.438 332.094 517.281 331.125 521.469 331.125C524.031 331.125 526.188 331.656 527.938 332.719C529.75 333.719 531.188 335.062 532.25 336.75C533.375 338.438 534.156 340.344 534.594 342.469C535.031 344.594 535.219 346.75 535.156 348.938C535.031 351 534.719 353 534.219 354.938C533.781 356.875 533.125 358.625 532.25 360.188C531.438 361.688 530.406 362.906 529.156 363.844C527.969 364.719 526.594 365.156 525.031 365.156C524.281 365.094 523.562 364.844 522.875 364.406C522.25 364.031 521.594 363.469 520.906 362.719C520.281 361.969 519.688 360.875 519.125 359.438C520.812 358.75 522.125 357.562 523.062 355.875C524.062 354.125 524.812 352.312 525.312 350.438C525.875 348.312 526.25 345.938 526.438 343.312C526.562 340.75 526.031 338.875 524.844 337.688C523.656 336.5 522.312 335.906 520.812 335.906C517.875 335.906 514.781 337.438 511.531 340.5C508.281 343.562 505.25 347.719 502.438 352.969C499.688 358.156 497.344 364.219 495.406 371.156C493.531 378.094 492.438 385.438 492.125 393.188C492 396.688 492.219 399.656 492.781 402.094C493.406 404.531 494.25 406.531 495.312 408.094C496.438 409.656 497.688 410.781 499.062 411.469C500.438 412.156 501.812 412.5 503.188 412.5C505.375 412.5 507.438 412.031 509.375 411.094C511.312 410.156 513.062 409 514.625 407.625C516.25 406.25 517.625 404.812 518.75 403.312C519.938 401.875 520.844 400.594 521.469 399.469C521.906 398.656 522.375 398.156 522.875 397.969C523.375 397.781 523.812 397.844 524.188 398.156C524.562 398.406 524.812 398.844 524.938 399.469C525.062 400.031 524.938 400.719 524.562 401.531C523.5 403.656 522.188 405.781 520.625 407.906C519.125 410.031 517.406 411.938 515.469 413.625C513.594 415.375 511.531 416.781 509.281 417.844C507.031 418.906 504.656 419.438 502.156 419.438ZM533.281 400.5C536.031 388.938 538.219 379.656 539.844 372.656C541.531 365.656 542.812 360.312 543.688 356.625C544.688 352.25 545.375 349.219 545.75 347.531C545.938 346.344 546.094 345.188 546.219 344.062C546.344 343.062 546.406 342.031 546.406 340.969C546.406 339.906 546.312 338.938 546.125 338.062C546.625 337.75 547.156 337.5 547.719 337.312C548.344 337.125 548.938 336.969 549.5 336.844C550.188 336.656 550.875 336.5 551.562 336.375C552.25 336.25 552.875 336.188 553.438 336.188C553.938 336.188 554.406 336.25 554.844 336.375C555.281 336.438 555.562 336.625 555.688 336.938C556.062 337.25 556.219 337.875 556.156 338.812C556.156 339.75 556.094 340.719 555.969 341.719C555.719 342.906 555.438 344.188 555.125 345.562C554.375 348.25 553.344 352.125 552.031 357.188C550.906 361.5 549.375 367.375 547.438 374.812C545.562 382.25 543.188 391.625 540.312 402.938C540 403.25 539.625 403.469 539.188 403.594C538.75 403.719 538.344 403.781 537.969 403.781C537.531 403.781 537.062 403.75 536.562 403.688C536.125 403.562 535.688 403.375 535.25 403.125C534.875 402.875 534.5 402.531 534.125 402.094C533.75 401.719 533.469 401.188 533.281 400.5ZM576.312 346.781C576.125 347.469 575.75 348.156 575.188 348.844C574.688 349.469 574.094 350 573.406 350.438C572.781 350.812 572.125 351.062 571.438 351.188C570.75 351.312 570.188 351.188 569.75 350.812C568.438 349.812 567.75 348.75 567.688 347.625C567.625 346.438 567.906 345.344 568.531 344.344C569.156 343.281 569.938 342.406 570.875 341.719C571.812 340.969 572.625 340.531 573.312 340.406C574 340.281 574.562 340.438 575 340.875C575.5 341.25 575.875 341.781 576.125 342.469C576.375 343.094 576.5 343.812 576.5 344.625C576.562 345.438 576.5 346.156 576.312 346.781ZM563.375 366.75C563.688 366.375 564.281 366.062 565.156 365.812C566.031 365.562 566.938 365.375 567.875 365.25C568.812 365.062 569.656 364.969 570.406 364.969C571.219 364.906 571.688 364.906 571.812 364.969C571.875 365.031 571.719 365.688 571.344 366.938C570.969 368.188 570.5 369.656 569.938 371.344C569.375 373.031 568.781 374.781 568.156 376.594C567.531 378.344 567.062 379.781 566.75 380.906C566.438 382.031 566.062 383.312 565.625 384.75C565.188 386.125 564.781 387.5 564.406 388.875C564.094 390.188 563.875 391.438 563.75 392.625C563.625 393.812 563.719 394.719 564.031 395.344C564.344 396.094 564.688 396.625 565.062 396.938C565.438 397.188 565.844 397.312 566.281 397.312C567.531 397.312 569.094 396.625 570.969 395.25C572.906 393.875 574.844 392.25 576.781 390.375C578.781 388.438 580.625 386.5 582.312 384.562C584 382.562 585.25 380.969 586.062 379.781C586.562 379.156 587.062 378.75 587.562 378.562C588.125 378.375 588.562 378.406 588.875 378.656C589.25 378.906 589.438 379.312 589.438 379.875C589.5 380.438 589.312 381.094 588.875 381.844C587.875 383.594 586.406 385.688 584.469 388.125C582.531 390.5 580.469 392.812 578.281 395.062C576.094 397.25 573.938 399.125 571.812 400.688C569.75 402.25 568.062 403.062 566.75 403.125C565.688 403.188 564.625 403 563.562 402.562C562.562 402.188 561.625 401.656 560.75 400.969C559.938 400.219 559.25 399.375 558.688 398.438C558.125 397.438 557.812 396.406 557.75 395.344C557.562 393.781 557.562 391.656 557.75 388.969C557.938 386.219 558.281 383.438 558.781 380.625C559.281 377.75 559.906 375.031 560.656 372.469C561.469 369.906 562.375 368 563.375 366.75ZM597.969 398.812C599.906 398.812 602.031 398.062 604.344 396.562C606.719 395 609 393.188 611.188 391.125C613.438 389.062 615.469 386.969 617.281 384.844C619.156 382.656 620.562 380.906 621.5 379.594C622.062 378.781 622.594 378.312 623.094 378.188C623.594 378 623.969 378.062 624.219 378.375C624.469 378.688 624.562 379.188 624.5 379.875C624.438 380.5 624.156 381.219 623.656 382.031C623.219 382.781 622.469 383.875 621.406 385.312C620.406 386.688 619.188 388.219 617.75 389.906C616.375 391.531 614.781 393.219 612.969 394.969C611.219 396.656 609.375 398.219 607.438 399.656C605.5 401.031 603.5 402.156 601.438 403.031C599.375 403.969 597.344 404.438 595.344 404.438C592.594 404.438 590.281 403.906 588.406 402.844C586.594 401.844 585.125 400.531 584 398.906C582.938 397.281 582.188 395.5 581.75 393.562C581.312 391.562 581.094 389.594 581.094 387.656C581.094 385.719 581.531 383.312 582.406 380.438C583.281 377.562 584.562 374.812 586.25 372.188C588 369.5 590.188 367.219 592.812 365.344C595.438 363.406 598.531 362.438 602.094 362.438C604.094 362.438 605.781 363.125 607.156 364.5C608.594 365.875 609.281 367.75 609.219 370.125C609.219 371.25 609.031 372.375 608.656 373.5C608.281 374.562 607.781 375.531 607.156 376.406C606.531 377.219 605.781 377.875 604.906 378.375C604.094 378.875 603.188 379.125 602.188 379.125C601.375 379.125 600.75 378.844 600.312 378.281C599.938 377.656 599.688 376.969 599.562 376.219C599.5 375.406 599.5 374.625 599.562 373.875C599.688 373.125 599.812 372.625 599.938 372.375C600.25 371.938 600.594 371.625 600.969 371.438C601.344 371.25 601.781 371.031 602.281 370.781C602.656 370.594 602.938 370.312 603.125 369.938C603.375 369.562 603.5 369.156 603.5 368.719C603.5 368.281 603.375 367.906 603.125 367.594C602.875 367.281 602.469 367.125 601.906 367.125C601.344 367.125 600.312 367.594 598.812 368.531C597.375 369.406 595.875 370.75 594.312 372.562C592.812 374.312 591.469 376.531 590.281 379.219C589.094 381.906 588.469 385.031 588.406 388.594C588.344 390.656 588.625 392.344 589.25 393.656C589.875 394.969 590.656 396 591.594 396.75C592.531 397.5 593.562 398.031 594.688 398.344C595.812 398.656 596.906 398.812 597.969 398.812ZM665 383.344C663.562 385.719 661.906 388.188 660.031 390.75C658.219 393.25 656.281 395.562 654.219 397.688C652.156 399.75 650.031 401.469 647.844 402.844C645.656 404.219 643.469 404.906 641.281 404.906C639.094 404.906 637.5 404.156 636.5 402.656C635.562 401.219 635.125 399.594 635.188 397.781C635.188 396.969 635.25 396.25 635.375 395.625C635.562 395 635.75 394.438 635.938 393.938C636.125 393.438 636.312 392.938 636.5 392.438C636.75 391.875 636.969 391.25 637.156 390.562C637.406 389.75 637.406 389.031 637.156 388.406C636.969 387.719 636.719 387.125 636.406 386.625C635.844 387.25 635.188 387.812 634.438 388.312C633.75 388.75 632.875 388.969 631.812 388.969C631.062 388.969 630.375 388.625 629.75 387.938C629.125 387.188 628.812 386.281 628.812 385.219C628.812 384.344 629 383.625 629.375 383.062C629.812 382.5 630.281 382.062 630.781 381.75C631.344 381.438 631.906 381.219 632.469 381.094C633.031 380.969 633.5 380.906 633.875 380.906C634.062 380.906 634.438 380.938 635 381C635.625 381.062 636.281 381.156 636.969 381.281C639.219 379.469 640.812 377.844 641.75 376.406C642.75 374.906 642.844 373.562 642.031 372.375C641.531 371.562 640.906 371.156 640.156 371.156C639.406 371.094 638.625 371.281 637.812 371.719C637 372.094 636.188 372.594 635.375 373.219C634.625 373.844 633.938 374.438 633.312 375C632.062 376.25 630.656 377.75 629.094 379.5C627.594 381.188 626.344 382.594 625.344 383.719C624.906 385.594 624.469 387.562 624.031 389.625C623.656 391.438 623.219 393.5 622.719 395.812C622.281 398.062 621.812 400.406 621.312 402.844C620.938 403.031 620.531 403.156 620.094 403.219C619.719 403.344 619.375 403.438 619.062 403.5C618.688 403.562 618.312 403.594 617.938 403.594C617.438 403.594 616.969 403.562 616.531 403.5C616.094 403.5 615.75 403.344 615.5 403.031C615.188 402.781 615.031 402.344 615.031 401.719C614.969 401.094 615.125 400.219 615.5 399.094C616 397.469 616.625 395.312 617.375 392.625C618.125 389.875 618.906 386.875 619.719 383.625C620.531 380.375 621.344 377 622.156 373.5C623.031 369.938 623.844 366.562 624.594 363.375C625.344 360.125 625.969 357.219 626.469 354.656C627.031 352.031 627.438 349.969 627.688 348.469C627.875 346.844 628.062 345.281 628.25 343.781C628.375 342.531 628.438 341.312 628.438 340.125C628.5 338.875 628.438 337.938 628.25 337.312C628.562 337 629 336.719 629.562 336.469C630.125 336.219 630.75 336.031 631.438 335.906C632.125 335.719 632.938 335.562 633.875 335.438C634.938 335.312 635.812 335.281 636.5 335.344C637.25 335.406 637.781 335.719 638.094 336.281C638.469 336.906 638.531 337.969 638.281 339.469C638.094 340.906 637.656 342.938 636.969 345.562C636.094 348.938 635.188 352.031 634.25 354.844C633.375 357.594 632.5 360.188 631.625 362.625C630.812 365.062 630 367.438 629.188 369.75C628.438 372 627.75 374.312 627.125 376.688C628.375 374.875 629.938 372.969 631.812 370.969C633.688 368.906 635.812 367.219 638.188 365.906C640.688 364.594 642.75 363.938 644.375 363.938C646.375 363.938 647.812 364.625 648.688 366C649.562 367.312 649.969 368.875 649.906 370.688C649.844 372.125 649.469 373.469 648.781 374.719C648.156 375.906 647.375 377.031 646.438 378.094C645.5 379.094 644.5 379.969 643.438 380.719C642.375 381.469 641.469 382.094 640.719 382.594C641.594 383.094 642.344 383.781 642.969 384.656C643.656 385.469 643.969 386.5 643.906 387.75C643.844 389.438 643.5 390.938 642.875 392.25C642.312 393.5 642.031 394.656 642.031 395.719C642.094 396.531 642.25 397.125 642.5 397.5C642.812 397.875 643.438 398.062 644.375 398.062C646.062 398.062 647.812 397.344 649.625 395.906C651.5 394.469 653.25 392.812 654.875 390.938C656.5 389.062 658 387.219 659.375 385.406C660.75 383.531 661.812 382.156 662.562 381.281C663.625 380.156 664.5 379.875 665.188 380.438C665.938 380.938 665.875 381.906 665 383.344ZM688.25 419.719C686.75 419.719 685.844 419.531 685.531 419.156C685.156 418.844 685.094 418.188 685.344 417.188C685.406 416.875 685.719 415.469 686.281 412.969C686.844 410.531 687.531 407.531 688.344 403.969C689.219 400.469 690.125 396.656 691.062 392.531C692.062 388.406 693 384.531 693.875 380.906C692.562 381.031 691.594 380.938 690.969 380.625C690.344 380.25 690.031 379.781 690.031 379.219C690.094 378.594 690.438 377.969 691.062 377.344C691.75 376.719 692.719 376.188 693.969 375.75C694.219 375.625 694.594 375.5 695.094 375.375C695.406 374.312 695.688 373.219 695.938 372.094C696.188 371.156 696.438 370.156 696.688 369.094C696.938 368.031 697.188 367 697.438 366L704 337.969C704.375 336.531 704.938 335.469 705.688 334.781C706.5 334.031 707.969 333.406 710.094 332.906C711.844 332.469 713.062 332.312 713.75 332.438C714.438 332.5 714.75 332.688 714.688 333C714.5 333.688 714.031 335.344 713.281 337.969C712.531 340.594 711.625 343.812 710.562 347.625C709.562 351.375 708.469 355.531 707.281 360.094C706.094 364.594 704.938 369.062 703.812 373.5C707.562 372.938 712.125 372.469 717.5 372.094C719.562 371.844 721.562 371.688 723.5 371.625C725.5 371.562 727.406 371.562 729.219 371.625C730.094 368.25 730.938 364.875 731.75 361.5C732.625 358.125 733.438 355 734.188 352.125C734.938 349.25 735.594 346.719 736.156 344.531C736.781 342.281 737.25 340.625 737.562 339.562C737.938 338.375 738.281 337.406 738.594 336.656C738.969 335.906 739.375 335.312 739.812 334.875C740.312 334.438 740.875 334.125 741.5 333.938C742.125 333.75 742.844 333.594 743.656 333.469C744.094 333.469 744.625 333.438 745.25 333.375C745.75 333.375 746.344 333.375 747.031 333.375C747.719 333.312 748.5 333.344 749.375 333.469C747 339.844 744.781 346.312 742.719 352.875C740.719 359.375 738.844 365.719 737.094 371.906C738.219 372.031 739.188 372.125 740 372.188C740.875 372.25 741.562 372.344 742.062 372.469C743.562 372.719 744.5 373.125 744.875 373.688C745.312 374.25 745.188 375.062 744.5 376.125L743.375 377.531C743 378.031 742.531 378.625 741.969 379.312C741.406 379.938 740.688 380.656 739.812 381.469C739.312 381.281 738.781 381.094 738.219 380.906C737.719 380.719 737.219 380.531 736.719 380.344C736.094 380.156 735.5 379.969 734.938 379.781C734.5 381.281 734.094 382.75 733.719 384.188C733.344 385.562 733 386.969 732.688 388.406C731.938 391.469 731.219 394.625 730.531 397.875C729.969 400.688 729.375 403.781 728.75 407.156C728.188 410.594 727.75 413.969 727.438 417.281C726.938 417.531 726.438 417.688 725.938 417.75C725.438 417.875 725 417.969 724.625 418.031C724.188 418.094 723.75 418.156 723.312 418.219H723.219H723.031H722.844C722.594 418.219 722.344 418.219 722.094 418.219C721.844 418.219 721.594 418.156 721.344 418.031C721.031 417.969 720.719 417.875 720.406 417.75C720.094 417.625 719.781 417.5 719.469 417.375C719.219 417.312 718.938 417.188 718.625 417C719.125 414.938 719.5 413 719.75 411.188C720.062 409.375 720.281 407.781 720.406 406.406C720.594 404.781 720.719 403.344 720.781 402.094C720.844 400.469 720.656 398.688 720.219 396.75C719.844 394.812 719.219 392.906 718.344 391.031C717.531 389.156 716.5 387.406 715.25 385.781C714.062 384.156 712.688 382.781 711.125 381.656C709.562 380.594 708.062 379.906 706.625 379.594C705.25 379.281 703.844 379.188 702.406 379.312C701.969 381.188 701.562 383 701.188 384.75C700.812 386.5 700.5 388.188 700.25 389.812C699.562 393.438 698.906 396.969 698.281 400.406C697.781 403.344 697.25 406.375 696.688 409.5C696.188 412.688 695.812 415.406 695.562 417.656C694.562 418.156 693.625 418.531 692.75 418.781C691.875 419.094 691.094 419.312 690.406 419.438C689.656 419.625 688.938 419.719 688.25 419.719ZM725.375 378.094C723.188 377.844 721.094 377.719 719.094 377.719C717.156 377.656 715.438 377.625 713.938 377.625C715.188 378.312 716.281 379.219 717.219 380.344C718.219 381.469 719.25 382.75 720.312 384.188C721.312 385.5 722.125 386.938 722.75 388.5C723.375 390.062 723.906 391.562 724.344 393C724.844 390.375 725.375 387.812 725.938 385.312C726.5 382.812 727.031 380.469 727.531 378.281C727.156 378.219 726.781 378.188 726.406 378.188C726.094 378.125 725.75 378.094 725.375 378.094ZM790.906 382.5C789.031 385.25 786.906 387.938 784.531 390.562C782.156 393.125 779.625 395.438 776.938 397.5C774.312 399.5 771.594 401.125 768.781 402.375C766.031 403.625 763.344 404.25 760.719 404.25C759.344 404.25 757.844 403.906 756.219 403.219C754.656 402.594 753.219 401.594 751.906 400.219C750.594 398.844 749.531 397.062 748.719 394.875C747.969 392.688 747.75 390.031 748.062 386.906C748.312 384.344 749.094 381.656 750.406 378.844C751.781 375.969 753.438 373.344 755.375 370.969C757.375 368.594 759.594 366.625 762.031 365.062C764.531 363.5 767.031 362.719 769.531 362.719C771.906 362.719 773.625 363.312 774.688 364.5C775.75 365.688 776.219 367.156 776.094 368.906C775.906 370.844 775.344 372.625 774.406 374.25C773.531 375.875 772.469 377.344 771.219 378.656C769.969 379.969 768.625 381.156 767.188 382.219C765.812 383.281 764.5 384.25 763.25 385.125C761.875 386.062 760.562 386.969 759.312 387.844C758.062 388.656 756.969 389.406 756.031 390.094C756.094 391.656 756.375 392.969 756.875 394.031C757.375 395.094 758 395.969 758.75 396.656C759.5 397.281 760.344 397.75 761.281 398.062C762.281 398.312 763.281 398.438 764.281 398.438C766.406 398.438 768.625 397.781 770.938 396.469C773.25 395.094 775.5 393.469 777.688 391.594C779.938 389.656 782 387.656 783.875 385.594C785.812 383.531 787.406 381.75 788.656 380.25C789.094 379.75 789.531 379.469 789.969 379.406C790.469 379.281 790.844 379.344 791.094 379.594C791.406 379.781 791.562 380.156 791.562 380.719C791.562 381.219 791.344 381.812 790.906 382.5ZM766.906 368.062C766.156 368.062 765.25 368.438 764.188 369.188C763.188 369.938 762.188 371.031 761.188 372.469C760.188 373.844 759.25 375.562 758.375 377.625C757.5 379.625 756.844 381.938 756.406 384.562C757.156 384 757.969 383.438 758.844 382.875C759.719 382.25 760.594 381.594 761.469 380.906C764.156 378.844 766.031 377.031 767.094 375.469C768.156 373.906 768.75 372.562 768.875 371.438C769 370.25 768.875 369.406 768.5 368.906C768.125 368.344 767.594 368.062 766.906 368.062ZM780.594 401.531C780.156 402.219 779.688 402.656 779.188 402.844C778.625 403.094 778.156 403.125 777.781 402.938C777.344 402.812 777.062 402.5 776.938 402C776.812 401.5 776.938 400.875 777.312 400.125C777.5 399.75 777.938 398.906 778.625 397.594C779.25 396.281 780.031 394.719 780.969 392.906C781.844 391.031 782.812 389.031 783.875 386.906C784.938 384.719 785.938 382.656 786.875 380.719C787.875 378.781 788.781 377.062 789.594 375.562C790.406 374 791 372.875 791.375 372.188C790.688 371.562 790.219 371.125 789.969 370.875C789.719 370.562 789.531 369.938 789.406 369C789.281 368.188 789.469 367.125 789.969 365.812C790.469 364.5 791.125 363.25 791.938 362.062C792.75 360.812 793.656 359.75 794.656 358.875C795.656 358 796.625 357.562 797.562 357.562C799.312 357.562 800.531 358.125 801.219 359.25C801.969 360.375 802.406 361.531 802.531 362.719C802.656 363.531 802.594 364.562 802.344 365.812C802.094 367.062 801.625 368.188 800.938 369.188C801.125 369.312 801.375 369.469 801.688 369.656C802 369.781 802.5 369.844 803.188 369.844C804.188 369.844 804.875 369.781 805.25 369.656C805.688 369.531 806.344 369.469 807.219 369.469C808.281 369.469 809.156 369.75 809.844 370.312C810.531 370.812 811.094 371.469 811.531 372.281C811.969 373.031 812.281 373.875 812.469 374.812C812.719 375.688 812.875 376.5 812.938 377.25C813.125 378.812 812.719 380.438 811.719 382.125C810.719 383.812 809.5 385.656 808.062 387.656C807.188 388.906 806.312 390.312 805.438 391.875C804.562 393.438 804.188 394.844 804.312 396.094C804.438 396.906 804.656 397.562 804.969 398.062C805.281 398.562 806.156 398.812 807.594 398.812C808.656 398.812 809.812 398.438 811.062 397.688C812.375 396.875 813.688 395.875 815 394.688C816.375 393.438 817.719 392.094 819.031 390.656C820.344 389.156 821.562 387.719 822.688 386.344C823.812 384.906 824.75 383.625 825.5 382.5C826.312 381.375 826.906 380.562 827.281 380.062C827.594 379.562 828 379.219 828.5 379.031C829 378.844 829.438 378.844 829.812 379.031C830.188 379.219 830.406 379.594 830.469 380.156C830.594 380.719 830.375 381.469 829.812 382.406C829.438 383.031 828.781 384.031 827.844 385.406C826.969 386.781 825.875 388.312 824.562 390C823.312 391.688 821.906 393.438 820.344 395.25C818.781 397 817.125 398.625 815.375 400.125C813.688 401.562 811.969 402.75 810.219 403.688C808.531 404.625 806.906 405.094 805.344 405.094C803.719 405.094 802.375 404.781 801.312 404.156C800.25 403.531 799.375 402.781 798.688 401.906C798.062 400.969 797.594 399.969 797.281 398.906C797.031 397.781 796.938 396.75 797 395.812C797.062 395.062 797.25 394.281 797.562 393.469C797.938 392.594 798.344 391.719 798.781 390.844C799.281 389.906 799.781 389 800.281 388.125C800.844 387.188 801.344 386.281 801.781 385.406C802.844 383.594 803.688 382.062 804.312 380.812C805 379.5 805.344 378.406 805.344 377.531C805.344 376.969 805.219 376.469 804.969 376.031C804.719 375.594 804.312 375.375 803.75 375.375C803.375 375.375 803.094 375.406 802.906 375.469C802.781 375.469 802.625 375.469 802.438 375.469C802.312 375.469 802.094 375.5 801.781 375.562C801.531 375.562 801.125 375.562 800.562 375.562C799.75 375.562 799.062 375.438 798.5 375.188C797.938 374.938 797.406 374.75 796.906 374.625C796.656 375.062 796.094 376 795.219 377.438C794.344 378.875 793.312 380.562 792.125 382.5C791 384.438 789.781 386.469 788.469 388.594C787.219 390.719 786.031 392.719 784.906 394.594C783.781 396.406 782.844 397.969 782.094 399.281C781.281 400.531 780.781 401.281 780.594 401.531ZM865.625 382.5C863.75 385.25 861.625 387.938 859.25 390.562C856.875 393.125 854.344 395.438 851.656 397.5C849.031 399.5 846.312 401.125 843.5 402.375C840.75 403.625 838.062 404.25 835.438 404.25C834.062 404.25 832.562 403.906 830.938 403.219C829.375 402.594 827.938 401.594 826.625 400.219C825.312 398.844 824.25 397.062 823.438 394.875C822.688 392.688 822.469 390.031 822.781 386.906C823.031 384.344 823.812 381.656 825.125 378.844C826.5 375.969 828.156 373.344 830.094 370.969C832.094 368.594 834.312 366.625 836.75 365.062C839.25 363.5 841.75 362.719 844.25 362.719C846.625 362.719 848.344 363.312 849.406 364.5C850.469 365.688 850.938 367.156 850.812 368.906C850.625 370.844 850.062 372.625 849.125 374.25C848.25 375.875 847.188 377.344 845.938 378.656C844.688 379.969 843.344 381.156 841.906 382.219C840.531 383.281 839.219 384.25 837.969 385.125C836.594 386.062 835.281 386.969 834.031 387.844C832.781 388.656 831.688 389.406 830.75 390.094C830.812 391.656 831.094 392.969 831.594 394.031C832.094 395.094 832.719 395.969 833.469 396.656C834.219 397.281 835.062 397.75 836 398.062C837 398.312 838 398.438 839 398.438C841.125 398.438 843.344 397.781 845.656 396.469C847.969 395.094 850.219 393.469 852.406 391.594C854.656 389.656 856.719 387.656 858.594 385.594C860.531 383.531 862.125 381.75 863.375 380.25C863.812 379.75 864.25 379.469 864.688 379.406C865.188 379.281 865.562 379.344 865.812 379.594C866.125 379.781 866.281 380.156 866.281 380.719C866.281 381.219 866.062 381.812 865.625 382.5ZM841.625 368.062C840.875 368.062 839.969 368.438 838.906 369.188C837.906 369.938 836.906 371.031 835.906 372.469C834.906 373.844 833.969 375.562 833.094 377.625C832.219 379.625 831.562 381.938 831.125 384.562C831.875 384 832.688 383.438 833.562 382.875C834.438 382.25 835.312 381.594 836.188 380.906C838.875 378.844 840.75 377.031 841.812 375.469C842.875 373.906 843.469 372.562 843.594 371.438C843.719 370.25 843.594 369.406 843.219 368.906C842.844 368.344 842.312 368.062 841.625 368.062Z" fill="white" fill-opacity="0.5"/>
</svg>
