<svg width="844" height="542" viewBox="0 0 844 542" fill="none" xmlns="http://www.w3.org/2000/svg">
<path d="M392.603 6.16699C392.554 6.17545 392.476 6.19168 392.395 6.22981C374.87 0.0879146 352.769 -0.892255 327.974 2.22129C302.743 5.38965 274.685 12.8019 245.755 23.3708C187.897 44.5082 126.502 78.2895 77.1733 116.08C52.5085 134.976 30.8512 154.882 14.1593 174.72C-2.52873 194.553 -14.2756 214.345 -19.0816 233.013C-23.892 251.698 -21.7483 269.268 -10.6427 284.583C0.344032 299.735 20.0572 312.617 50.3081 322.228C7.56173 358.559 -2.53488 392.4 9.29915 420.884C21.1608 449.434 54.9745 472.35 99.1949 486.891C143.445 501.441 198.24 507.648 252.262 502.683C306.163 497.728 359.334 481.647 400.502 451.589C461.799 489.127 519.317 514.99 569.868 528.886C620.49 542.802 664.167 544.729 697.66 534.318C731.183 523.897 754.474 501.121 764.276 465.742C774.046 430.475 770.4 382.728 750.238 322.263C793.111 298.886 819.445 276.273 832.679 254.58C845.971 232.79 846.029 211.949 836.399 192.302C826.787 172.694 807.543 154.308 782.297 137.311C757.043 120.308 725.738 104.665 691.941 90.5615C624.345 62.3531 546.726 40.2768 487.482 25.7881C457.858 18.5434 432.823 13.1945 415.927 9.92383C407.48 8.28875 401.062 7.17205 397.119 6.59768C395.158 6.31196 393.781 6.15608 393.074 6.14304C392.899 6.13983 392.735 6.14432 392.603 6.16699Z" fill="#F9F9F9" stroke="black"/>
</svg>
