<svg width="652" height="608" viewBox="0 0 652 608" fill="none" xmlns="http://www.w3.org/2000/svg">
<path d="M4.00005 78.5001L24 90.0471L24.0001 66.9531L4.00005 78.5001ZM6.55617 78.5001L6.55617 80.5001L6.55617 80.5001L6.55617 78.5001ZM6.55617 80.5001C100.873 80.5 183.143 144.553 206.27 235.99L210.148 235.01C186.572 141.797 102.704 76.5 6.55617 76.5001L6.55617 80.5001Z" fill="#EEEEEE"/>
<g filter="url(#filter0_d_629_11)">
<ellipse cx="380.5" cy="407.5" rx="250.5" ry="175.5" fill="white" fill-opacity="0.1" shape-rendering="crispEdges"/>
</g>
<path d="M203.112 443.96C198.312 443.96 193.864 443.096 189.768 441.368C185.672 439.576 182.088 437.112 179.016 433.976C176.008 430.84 173.672 427.192 172.008 423.032C170.344 418.872 169.512 414.424 169.512 409.688C169.512 404.888 170.344 400.408 172.008 396.248C173.672 392.088 176.008 388.472 179.016 385.4C182.088 382.264 185.64 379.832 189.672 378.104C193.768 376.312 198.216 375.416 203.016 375.416C208.264 375.416 212.872 376.312 216.84 378.104C220.808 379.896 224.328 382.328 227.4 385.4L221.16 391.64C219.048 389.272 216.456 387.416 213.384 386.072C210.376 384.728 206.92 384.056 203.016 384.056C199.496 384.056 196.264 384.696 193.32 385.976C190.376 387.192 187.816 388.952 185.64 391.256C183.464 393.56 181.768 396.28 180.552 399.416C179.4 402.552 178.824 405.976 178.824 409.688C178.824 413.4 179.4 416.824 180.552 419.96C181.768 423.096 183.464 425.816 185.64 428.12C187.816 430.424 190.376 432.216 193.32 433.496C196.264 434.712 199.496 435.32 203.016 435.32C207.176 435.32 210.792 434.648 213.864 433.304C216.936 431.896 219.528 430.008 221.64 427.64L227.88 433.784C224.808 436.984 221.192 439.48 217.032 441.272C212.936 443.064 208.296 443.96 203.112 443.96ZM237.43 443V374.456H246.07V443H237.43ZM258.807 443V397.4H267.447V443H258.807ZM263.127 388.28C261.527 388.28 260.215 387.768 259.191 386.744C258.167 385.656 257.655 384.312 257.655 382.712C257.655 381.176 258.167 379.896 259.191 378.872C260.215 377.784 261.527 377.24 263.127 377.24C264.727 377.24 266.039 377.784 267.063 378.872C268.087 379.896 268.599 381.176 268.599 382.712C268.599 384.312 268.087 385.656 267.063 386.744C266.039 387.768 264.727 388.28 263.127 388.28ZM301.012 443.96C296.532 443.96 292.468 442.904 288.82 440.792C285.236 438.68 282.388 435.832 280.276 432.248C278.228 428.6 277.204 424.568 277.204 420.152C277.204 415.672 278.228 411.64 280.276 408.056C282.388 404.472 285.236 401.656 288.82 399.608C292.468 397.496 296.532 396.44 301.012 396.44C304.532 396.44 307.796 397.112 310.804 398.456C313.812 399.736 316.404 401.624 318.58 404.12L312.82 409.88C311.412 408.216 309.684 406.968 307.636 406.136C305.652 405.24 303.444 404.792 301.012 404.792C298.132 404.792 295.572 405.464 293.332 406.808C291.092 408.088 289.332 409.88 288.052 412.184C286.772 414.488 286.132 417.144 286.132 420.152C286.132 423.16 286.772 425.816 288.052 428.12C289.332 430.424 291.092 432.248 293.332 433.592C295.572 434.936 298.132 435.608 301.012 435.608C303.444 435.608 305.652 435.192 307.636 434.36C309.684 433.464 311.444 432.184 312.916 430.52L318.58 436.28C316.468 438.712 313.876 440.6 310.804 441.944C307.796 443.288 304.532 443.96 301.012 443.96ZM356.333 443L335.021 419.672L356.141 397.4H366.605L343.085 421.976L343.469 416.984L367.469 443H356.333ZM327.148 443V374.456H335.789V443H327.148ZM396.466 443V376.376H405.49V443H396.466ZM439.474 443V376.376H448.498V443H439.474ZM402.61 412.664V404.408H441.682V412.664H402.61ZM483.831 443.96C479.287 443.96 475.191 442.936 471.543 440.888C467.895 438.776 465.015 435.928 462.903 432.344C460.791 428.76 459.735 424.696 459.735 420.152C459.735 415.672 460.759 411.64 462.807 408.056C464.919 404.472 467.735 401.656 471.255 399.608C474.839 397.496 478.839 396.44 483.255 396.44C487.479 396.44 491.191 397.4 494.391 399.32C497.655 401.24 500.183 403.896 501.975 407.288C503.831 410.68 504.759 414.52 504.759 418.808C504.759 419.448 504.727 420.152 504.663 420.92C504.599 421.624 504.471 422.456 504.279 423.416H465.783V416.216H499.671L496.503 419C496.503 415.928 495.959 413.336 494.871 411.224C493.783 409.048 492.247 407.384 490.263 406.232C488.279 405.016 485.879 404.408 483.063 404.408C480.119 404.408 477.527 405.048 475.287 406.328C473.047 407.608 471.319 409.4 470.103 411.704C468.887 414.008 468.279 416.728 468.279 419.864C468.279 423.064 468.919 425.88 470.199 428.312C471.479 430.68 473.303 432.536 475.671 433.88C478.039 435.16 480.759 435.8 483.831 435.8C486.391 435.8 488.727 435.352 490.839 434.456C493.015 433.56 494.871 432.216 496.407 430.424L501.975 436.088C499.799 438.648 497.111 440.6 493.911 441.944C490.775 443.288 487.415 443.96 483.831 443.96ZM514.18 443V397.4H522.82V443H514.18ZM522.82 416.984L519.556 415.544C519.556 409.72 520.9 405.08 523.588 401.624C526.276 398.168 530.148 396.44 535.204 396.44C537.508 396.44 539.588 396.856 541.444 397.688C543.3 398.456 545.028 399.768 546.628 401.624L540.964 407.48C540.004 406.456 538.948 405.72 537.796 405.272C536.644 404.824 535.3 404.6 533.764 404.6C530.564 404.6 527.94 405.624 525.892 407.672C523.844 409.72 522.82 412.824 522.82 416.984ZM572.331 443.96C567.787 443.96 563.691 442.936 560.043 440.888C556.395 438.776 553.515 435.928 551.403 432.344C549.291 428.76 548.235 424.696 548.235 420.152C548.235 415.672 549.259 411.64 551.307 408.056C553.419 404.472 556.235 401.656 559.755 399.608C563.339 397.496 567.339 396.44 571.755 396.44C575.979 396.44 579.691 397.4 582.891 399.32C586.155 401.24 588.683 403.896 590.475 407.288C592.331 410.68 593.259 414.52 593.259 418.808C593.259 419.448 593.227 420.152 593.163 420.92C593.099 421.624 592.971 422.456 592.779 423.416H554.283V416.216H588.171L585.003 419C585.003 415.928 584.459 413.336 583.371 411.224C582.283 409.048 580.747 407.384 578.763 406.232C576.779 405.016 574.379 404.408 571.563 404.408C568.619 404.408 566.027 405.048 563.787 406.328C561.547 407.608 559.819 409.4 558.603 411.704C557.387 414.008 556.779 416.728 556.779 419.864C556.779 423.064 557.419 425.88 558.699 428.312C559.979 430.68 561.803 432.536 564.171 433.88C566.539 435.16 569.259 435.8 572.331 435.8C574.891 435.8 577.227 435.352 579.339 434.456C581.515 433.56 583.371 432.216 584.907 430.424L590.475 436.088C588.299 438.648 585.611 440.6 582.411 441.944C579.275 443.288 575.915 443.96 572.331 443.96Z" fill="white" fill-opacity="0.8"/>
<defs>
<filter id="filter0_d_629_11" x="109.6" y="215.6" width="541.8" height="391.8" filterUnits="userSpaceOnUse" color-interpolation-filters="sRGB">
<feFlood flood-opacity="0" result="BackgroundImageFix"/>
<feColorMatrix in="SourceAlpha" type="matrix" values="0 0 0 0 0 0 0 0 0 0 0 0 0 0 0 0 0 0 127 0" result="hardAlpha"/>
<feMorphology radius="10" operator="dilate" in="SourceAlpha" result="effect1_dropShadow_629_11"/>
<feOffset dy="4"/>
<feGaussianBlur stdDeviation="5.2"/>
<feComposite in2="hardAlpha" operator="out"/>
<feColorMatrix type="matrix" values="0 0 0 0 0 0 0 0 0 0 0 0 0 0 0 0 0 0 0.25 0"/>
<feBlend mode="normal" in2="BackgroundImageFix" result="effect1_dropShadow_629_11"/>
<feBlend mode="normal" in="SourceGraphic" in2="effect1_dropShadow_629_11" result="shape"/>
</filter>
</defs>
</svg>
